<svg xmlns="http://www.w3.org/2000/svg" viewBox="0 0 240 200" width="240" height="200" fill="none">
  <g transform="rotate(-3.2 120.0 101.0)"><rect x="38" y="26" width="164" height="150" rx="12" fill="#14262F" stroke="#2E4A5A" stroke-width="2"/><path d="M66 84H184" stroke="#2E4A5A" stroke-width="1.6"/><path d="M66 110H184" stroke="#2E4A5A" stroke-width="1.6"/><path d="M66 136H184" stroke="#2E4A5A" stroke-width="1.6"/><path d="M66 162H184" stroke="#2E4A5A" stroke-width="1.6"/><path d="M58 54V160" stroke="#E8705A" stroke-width="2" opacity=".75"/><circle cx="60" cy="26" r="4.2" fill="#E3EBE9" opacity=".85"/><circle cx="84" cy="26" r="4.2" fill="#E3EBE9" opacity=".85"/><circle cx="108" cy="26" r="4.2" fill="#E3EBE9" opacity=".85"/><circle cx="132" cy="26" r="4.2" fill="#E3EBE9" opacity=".85"/><circle cx="156" cy="26" r="4.2" fill="#E3EBE9" opacity=".85"/><circle cx="180" cy="26" r="4.2" fill="#E3EBE9" opacity=".85"/></g><g transform="translate(76 82)"><rect x="8" y="24" width="72" height="56" rx="8" fill="#1B3A4B" stroke="#E3EBE9" stroke-width="3.4"/><path d="M26 24V12h36v12" fill="none" stroke="#E3EBE9" stroke-width="3.2"/><rect x="30" y="48" width="28" height="20" rx="3" fill="none" stroke="#E3EBE9" stroke-width="3"/><circle cx="86" cy="20" r="14" fill="#0F9D82"/><path d="M79.4 20.4 84 25 93 14" fill="none" stroke="#FFFFFF" stroke-width="3.4" stroke-linecap="round" stroke-linejoin="round"/></g>
</svg>
