<svg xmlns="http://www.w3.org/2000/svg" viewBox="0 0 320 240" width="320" height="240" fill="none">
  <g transform="rotate(-2.6 160.0 114.0)"><rect x="48" y="26" width="224" height="176" rx="14" fill="#FDFCF8" stroke="#DCE5E2" stroke-width="2"/><path d="M78 72H252" stroke="#DCE5E2" stroke-width="1.6"/><path d="M78 98H252" stroke="#DCE5E2" stroke-width="1.6"/><path d="M78 124H252" stroke="#DCE5E2" stroke-width="1.6"/><path d="M78 150H252" stroke="#DCE5E2" stroke-width="1.6"/><path d="M78 176H252" stroke="#DCE5E2" stroke-width="1.6"/><path d="M70 52V186" stroke="#E8705A" stroke-width="2.1" opacity=".78"/><circle cx="68.0" cy="26" r="4.4" fill="#1B3A4B" opacity=".88"/><circle cx="94.0" cy="26" r="4.4" fill="#1B3A4B" opacity=".88"/><circle cx="120.0" cy="26" r="4.4" fill="#1B3A4B" opacity=".88"/><circle cx="146.0" cy="26" r="4.4" fill="#1B3A4B" opacity=".88"/><circle cx="172.0" cy="26" r="4.4" fill="#1B3A4B" opacity=".88"/><circle cx="198.0" cy="26" r="4.4" fill="#1B3A4B" opacity=".88"/><circle cx="224.0" cy="26" r="4.4" fill="#1B3A4B" opacity=".88"/><circle cx="250.0" cy="26" r="4.4" fill="#1B3A4B" opacity=".88"/></g><circle cx="96" cy="96" r="5" fill="#0F9D82"/><rect x="108" y="92" width="92" height="8" rx="4" fill="#8A9A96" opacity=".32"/><circle cx="96" cy="126" r="5" fill="#0F9D82"/><rect x="108" y="122" width="116" height="8" rx="4" fill="#8A9A96" opacity=".32"/><circle cx="96" cy="156" r="5" fill="#0F9D82"/><rect x="108" y="152" width="74" height="8" rx="4" fill="#8A9A96" opacity=".32"/><rect x="176" y="46" width="76" height="30" rx="15" fill="#0F9D82" opacity=".14"/><path d="M192 61.5 200 69.5 236 53" fill="none" stroke="#0F9D82" stroke-width="4" stroke-linecap="round" stroke-linejoin="round"/><circle cx="248" cy="188" r="30" fill="#0F9D82"/><path d="M248 174v28M234 188h28" stroke="#FFFFFF" stroke-width="4.6" stroke-linecap="round"/>
</svg>
